HIERARCHY
ROOT Hips
{
  OFFSET 0 0 0
  CHANNELS 6 Xposition Yposition Zposition Zrotation Xrotation Yrotation
  JOINT Spine
  {
    OFFSET 0.00000000 0.00000000 0.00000000
    CHANNELS 3 Zrotation Xrotation Yrotation
    JOINT Spine1
    {
      OFFSET 0.19000000 0.00000000 0.00000000
      CHANNELS 3 Zrotation Xrotation Yrotation
      JOINT Neck
      {
        OFFSET 0.22500000 0.00600000 0.00000000
        CHANNELS 3 Zrotation Xrotation Yrotation
        JOINT Head
        {
          OFFSET 0.14000000 0.00030878 0.00000000
          CHANNELS 3 Zrotation Xrotation Yrotation
          End Site
          {
            OFFSET 0.17000000 0.00000000 0.00000000
          }
        }
      }
      JOINT LeftShoulder
      {
        OFFSET 0.19800000 0.03700000 0.04300000
        CHANNELS 3 Zrotation Xrotation Yrotation
        JOINT LeftArm
        {
          OFFSET 0.08000000 0.00000000 0.00000000
          CHANNELS 3 Zrotation Xrotation Yrotation
          JOINT LeftForeArm
          {
            OFFSET 0.15200000 0.00000000 0.00000000
            CHANNELS 3 Zrotation Xrotation Yrotation
            JOINT LeftHand
            {
              OFFSET 0.17800000 0.00000000 0.00000000
              CHANNELS 3 Zrotation Xrotation Yrotation
              End Site
              {
                OFFSET 0.07200000 0.00000000 0.00000000
              }
            }
          }
        }
      }
      JOINT RightShoulder
      {
        OFFSET 0.19800000 0.03700000 -0.04300000
        CHANNELS 3 Zrotation Xrotation Yrotation
        JOINT RightArm
        {
          OFFSET 0.08000000 0.00000000 0.00151654
          CHANNELS 3 Zrotation Xrotation Yrotation
          JOINT RightForeArm
          {
            OFFSET 0.15200000 0.00000000 0.00000000
            CHANNELS 3 Zrotation Xrotation Yrotation
            JOINT RightHand
            {
              OFFSET 0.17800000 0.00000000 0.00000000
              CHANNELS 3 Zrotation Xrotation Yrotation
              End Site
              {
                OFFSET 0.07200000 0.00000000 0.00000000
              }
            }
          }
        }
      }
    }
  }
  JOINT LeftUpLeg
  {
    OFFSET 0.05984250 -0.07666000 0.04788790
    CHANNELS 3 Zrotation Xrotation Yrotation
    JOINT LeftLeg
    {
      OFFSET 0.16000000 0.00000000 0.00000000
      CHANNELS 3 Zrotation Xrotation Yrotation
      JOINT LeftFoot
      {
        OFFSET 0.18000000 0.00000000 0.00000000
        CHANNELS 3 Zrotation Xrotation Yrotation
        End Site
        {
          OFFSET 0.00000000 -0.10800000 0.00000000
        }
      }
    }
  }
  JOINT RightUpLeg
  {
    OFFSET 0.05984250 -0.07665980 -0.04788790
    CHANNELS 3 Zrotation Xrotation Yrotation
    JOINT RightLeg
    {
      OFFSET 0.16000000 0.00000000 0.00000000
      CHANNELS 3 Zrotation Xrotation Yrotation
      JOINT RightFoot
      {
        OFFSET 0.18000000 0.00000000 0.00000000
        CHANNELS 3 Zrotation Xrotation Yrotation
        End Site
        {
          OFFSET 0.00000000 -0.10800000 0.00000000
        }
      }
    }
  }
  JOINT Tail
  {
    OFFSET 0.06836960 -0.00722574 0.00000000
    CHANNELS 3 Zrotation Xrotation Yrotation
    JOINT Tail1
    {
      OFFSET 0.12000000 0.00000000 0.00000000
      CHANNELS 3 Zrotation Xrotation Yrotation
      End Site
      {
        OFFSET 0.12000000 0.00000000 0.00000000
      }
    }
  }
}
MOTION
Frames:	17
Frame Time:	0.0166667
-3.3956008 0.0609611 0.9967606 150.910 78.5718 -161.463 -162.731 -7.88127 -18.9287 -18.4129 -4.94613 4.82855 -4.01173 16.8114 -5.39612 -125.912 47.7175 156.693 -122.585 -47.9035 -144.863 123.609 -21.8706 -153.892 -74.7393 -25.6 14.907 9.32162 1.50587 -25.8364 74.9944 -25.2819 30.4397 33.5917 -26.1639 -58.502 -77.2074 -11.4118 -4.2691 0.908375 1.7722 -10.1595 -151.386 4.51228 -45.7278 113.559 34.459 8.46259 50.2043 -2.80079 -5.51007 -120.807 8.20752 -15.4215 94.4364 -4.71649 -3.6345 56.5837 -1.15256 -3.31729 -106.472 -77.0392 -54.2117 3.43669 -23.1656 7.3822 
-3.3956275 0.0609192 0.9964816 150.631 78.4588 -161.149 -162.981 -7.74865 -18.86 -18.2191 -4.83731 4.76075 -3.98823 16.7549 -5.42115 -125.876 47.7455 156.618 -122.618 -47.9102 -144.912 123.579 -21.8913 -153.902 -74.6826 -25.6385 14.8977 9.24814 1.53263 -25.8883 74.9839 -25.2947 30.4415 33.6034 -26.1511 -58.4331 -77.179 -11.4571 -4.27984 0.858407 1.78831 -10.1884 -151.405 4.68442 -45.7469 113.577 34.6919 8.44592 50.0752 -2.8075 -5.51856 -120.895 8.27571 -15.4995 94.456 -4.71174 -3.63583 56.5278 -1.15116 -3.31648 -106.946 -77.0074 -54.6318 3.42992 -23.1303 7.38487 
-3.3955993 0.0609655 0.9966605 151.302 78.5246 -161.815 -162.694 -7.85764 -18.8302 -18.4667 -4.90146 4.71385 -3.94969 16.7964 -5.31889 -125.922 47.725 156.682 -122.535 -47.8368 -144.876 123.626 -21.9634 -154.092 -74.8786 -25.568 14.9446 9.27268 1.50467 -25.8653 75.0214 -25.2336 30.3861 33.499 -26.1957 -58.4172 -77.1926 -11.438 -4.28208 0.878731 1.77808 -10.1303 -151.553 4.64467 -45.6695 113.851 34.3074 8.2789 50.3102 -2.76287 -5.46374 -120.761 8.25247 -15.5458 94.495 -4.6533 -3.62218 56.5372 -1.15048 -3.31497 -106.638 -76.9947 -54.4817 3.42914 -23.1633 7.38896 
-3.3955637 0.0609600 0.9968290 151.848 78.6356 -162.361 -162.488 -7.94213 -18.7932 -18.5277 -4.94439 4.65465 -3.99273 16.7938 -5.21849 -125.938 47.7811 156.738 -122.575 -47.8822 -144.877 123.626 -21.9974 -154.117 -74.9284 -25.6107 14.9604 9.31638 1.49789 -25.9623 75.0004 -25.2634 30.4029 33.4738 -26.158 -58.4885 -77.1936 -11.3941 -4.28 0.911935 1.76422 -10.0902 -151.503 4.58071 -45.6064 113.922 34.1806 8.24671 50.4583 -2.75173 -5.4524 -120.627 8.19603 -15.506 94.5068 -4.65559 -3.61991 56.5171 -1.15032 -3.3132 -106.092 -76.9738 -54.0488 3.43637 -23.2192 7.3836 
-3.3956054 0.0608584 0.9966808 151.076 78.6095 -161.547 -162.73 -7.87545 -18.7027 -18.3584 -4.91394 4.59756 -3.9729 16.7624 -5.29309 -125.894 47.7153 156.605 -122.662 -47.9467 -144.933 123.573 -22.0205 -154.075 -74.7739 -25.6932 14.9098 9.34921 1.51408 -26.0314 74.9852 -25.2912 30.4349 33.4235 -26.1999 -58.4563 -77.1613 -11.3786 -4.26632 0.929359 1.76065 -10.0802 -151.377 4.53687 -45.5457 113.667 34.3205 8.36722 50.1561 -2.78478 -5.49548 -120.808 8.22837 -15.4114 94.4717 -4.67992 -3.63839 56.6107 -1.15048 -3.31164 -106.128 -76.9404 -53.9224 3.44713 -23.1989 7.36458 
-3.3956434 0.0608336 0.9965724 150.624 78.5031 -161.096 -162.931 -7.79233 -18.673 -18.2595 -4.84751 4.54597 -3.96815 16.7189 -5.30902 -125.84 47.7637 156.636 -122.681 -47.9613 -144.945 123.62 -22.0485 -154.049 -74.7097 -25.6048 14.8757 9.32975 1.51143 -25.8614 74.9746 -25.3094 30.454 33.3858 -26.2506 -58.404 -77.1661 -11.4719 -4.28548 0.792008 1.77818 -10.032 -151.395 4.6387 -45.57 113.544 34.6175 8.417 50.0585 -2.80491 -5.51739 -120.912 8.29503 -15.4354 94.4488 -4.69312 -3.64776 56.5939 -1.15075 -3.31075 -106.65 -76.9632 -54.3559 3.42748 -23.1463 7.38803 
-3.3956279 0.0608758 0.9966718 151.114 78.4388 -161.619 -162.809 -7.81936 -18.751 -18.3948 -4.85502 4.59033 -3.98254 16.7889 -5.24259 -125.946 47.792 156.742 -122.582 -47.9031 -144.858 123.715 -22.1092 -154.14 -74.89 -25.5428 14.9012 9.28316 1.50645 -25.9672 74.9739 -25.3046 30.436 33.3314 -26.3118 -58.4108 -77.2216 -11.4672 -4.28656 0.863204 1.77929 -10.0944 -151.667 4.71489 -45.5585 113.856 34.2596 8.24476 50.2723 -2.75121 -5.45068 -120.845 8.32404 -15.5696 94.482 -4.69141 -3.6351 56.5641 -1.15093 -3.311 -107.138 -77.0184 -54.9189 3.41859 -23.0986 7.3879 
-3.3955747 0.0609290 0.9968495 151.666 78.5256 -162.173 -162.579 -7.89194 -18.7265 -18.5153 -4.88712 4.55045 -4.01531 16.8162 -5.20913 -125.94 47.7388 156.76 -122.574 -47.9096 -144.834 123.718 -22.1419 -154.214 -74.9799 -25.4977 14.9256 9.30215 1.48969 -25.8872 74.9707 -25.3045 30.4236 33.2782 -26.297 -58.3978 -77.2257 -11.3741 -4.29645 0.907641 1.75702 -10.0041 -151.548 4.67083 -45.5292 113.929 34.1582 8.19963 50.2952 -2.74376 -5.44446 -120.708 8.29834 -15.5254 94.4788 -4.66736 -3.63862 56.6129 -1.15103 -3.31397 -106.63 -76.9612 -54.5006 3.43059 -23.1904 7.37475 
-3.3955559 0.0608647 0.9967786 151.214 78.5289 -161.757 -162.745 -7.85237 -18.735 -18.3483 -4.85401 4.51509 -4.03764 16.7828 -5.26236 -125.887 47.7181 156.687 -122.644 -47.9763 -144.856 123.731 -22.1872 -154.129 -74.8767 -25.4836 14.8536 9.35877 1.48511 -25.7893 74.9469 -25.3487 30.4759 33.2688 -26.2631 -58.3836 -77.1825 -11.3754 -4.29306 0.91317 1.76414 -10.0572 -151.39 4.62912 -45.5305 113.758 34.2255 8.30155 50.138 -2.75935 -5.46844 -120.778 8.25242 -15.4401 94.4158 -4.76072 -3.64729 56.6155 -1.15118 -3.31434 -106.773 -77.0423 -54.5339 3.42699 -23.1325 7.34789 
-3.3955687 0.0607133 0.9967191 150.894 78.4511 -161.428 -162.898 -7.79632 -18.6917 -18.2703 -4.8135 4.46797 -4.01585 16.7573 -5.30559 -125.807 47.6164 156.596 -122.574 -47.9449 -144.78 123.923 -22.2934 -154.089 -74.7952 -25.569 14.7551 9.47523 1.48277 -25.9114 74.9669 -25.3221 30.4659 33.265 -26.2389 -58.3709 -77.1232 -11.4498 -4.3065 0.766668 1.77966 -10.0177 -151.439 4.69994 -45.5201 113.668 34.381 8.3473 50.1956 -2.76648 -5.47611 -120.849 8.3185 -15.4058 94.4056 -4.74787 -3.66403 56.5912 -1.15141 -3.31345 -107.214 -77.0686 -54.9009 3.41962 -23.0711 7.36669 
-3.3955499 0.0606846 0.9968885 151.081 78.4173 -161.631 -162.806 -7.84247 -18.7068 -18.4117 -4.841 4.45149 -4.01312 16.8094 -5.19474 -125.914 47.6918 156.718 -122.423 -47.8659 -144.633 124.155 -22.4695 -154.168 -74.9785 -25.3088 14.661 9.39413 1.47733 -25.9389 74.9779 -25.3099 30.4678 33.2973 -26.2464 -58.4756 -77.1264 -11.4204 -4.31029 0.741387 1.77727 -10.0027 -151.554 4.68169 -45.4929 113.729 34.2721 8.28118 50.1774 -2.76176 -5.46209 -120.817 8.32204 -15.4893 94.4144 -4.71578 -3.65128 56.585 -1.15172 -3.31186 -107.515 -77.1196 -55.2447 3.39322 -23.0237 7.38185 
-3.3954965 0.0607468 0.9969861 151.284 78.4568 -161.866 -162.728 -7.87287 -18.7319 -18.4492 -4.8477 4.43387 -4.02331 16.828 -5.20029 -125.911 47.6253 156.675 -122.351 -47.837 -144.548 124.406 -22.5484 -154.1 -74.8984 -25.2098 14.5632 9.47184 1.45876 -25.7949 74.9747 -25.3131 30.4662 33.3368 -26.2328 -58.4902 -77.1253 -11.3731 -4.30269 0.772157 1.76837 -9.99842 -151.44 4.65601 -45.4946 113.724 34.2238 8.27969 50.0976 -2.7558 -5.46155 -120.765 8.27962 -15.4916 94.3961 -4.72886 -3.64598 56.6305 -1.15211 -3.31015 -107.424 -77.1578 -55.1799 3.39878 -23.0239 7.37447 
-3.3954546 0.0607788 0.9968941 151.153 78.4675 -161.739 -162.813 -7.8277 -18.7289 -18.3255 -4.80831 4.42378 -4.07997 16.8374 -5.25812 -125.9 47.6159 156.671 -122.37 -47.8819 -144.513 124.384 -22.6863 -154.032 -74.9829 -25.1655 14.4965 9.50239 1.45169 -25.7814 74.9478 -25.3528 30.4924 33.3669 -26.2003 -58.4856 -77.0591 -11.4536 -4.27867 0.695744 1.78283 -10.0144 -151.333 4.64397 -45.481 113.689 34.206 8.2983 49.9952 -2.75817 -5.46865 -120.77 8.26338 -15.4424 94.3684 -4.76394 -3.64386 56.602 -1.15259 -3.30888 -107.394 -77.1657 -55.1068 3.40803 -23.0189 7.35582 
-3.3954780 0.0607912 0.9967751 151.048 78.4115 -161.643 -162.911 -7.78765 -18.7488 -18.2469 -4.77844 4.4319 -4.25814 16.8053 -5.24682 -125.691 47.5912 156.876 -122.38 -47.9206 -144.47 124.436 -22.7161 -153.976 -74.9734 -25.1447 14.4746 9.45931 1.46409 -25.8455 74.9442 -25.3574 30.4937 33.4483 -26.1502 -58.5484 -77.054 -11.4581 -4.27513 0.677553 1.78493 -10.0222 -151.467 4.70494 -45.4687 113.758 34.2649 8.25686 50.0938 -2.75145 -5.45846 -120.811 8.29979 -15.4471 94.3892 -4.80282 -3.64297 56.5575 -1.15318 -3.30863 -107.664 -77.1676 -55.3424 3.40843 -23.0063 7.34923 
-3.3954451 0.0607727 0.9968837 151.282 78.4375 -161.879 -162.748 -7.86509 -18.8112 -18.4235 -4.85735 4.53341 -4.10402 16.8285 -5.21727 -125.888 47.6214 156.677 -122.35 -47.8875 -144.468 124.428 -22.6613 -154.069 -74.9843 -25.1627 14.5324 9.49365 1.45015 -25.8469 74.9825 -25.3062 30.4734 33.473 -26.1462 -58.5976 -77.1161 -11.4393 -4.29244 0.711653 1.78682 -10.0286 -151.602 4.67797 -45.4022 113.878 34.099 8.18749 50.2217 -2.7331 -5.43508 -120.777 8.28969 -15.4622 94.4141 -4.77607 -3.64308 56.5648 -1.15388 -3.30996 -107.581 -77.1766 -55.3068 3.39888 -23.009 7.35451 
-3.3954421 0.0607068 0.9969937 151.089 78.4989 -161.679 -162.733 -7.88857 -18.808 -18.433 -4.89403 4.57078 -4.03797 16.8319 -5.27944 -125.896 47.5695 156.603 -122.409 -47.8773 -144.589 124.332 -22.5419 -154.123 -74.88 -25.2728 14.5927 9.51595 1.45568 -25.8886 75.0077 -25.2725 30.4595 33.5298 -26.0758 -58.5962 -77.098 -11.4137 -4.28939 0.776613 1.78476 -10.1424 -151.44 4.57301 -45.3489 113.714 34.1574 8.25154 49.9933 -2.75719 -5.46591 -120.806 8.25008 -15.4254 94.4016 -4.73138 -3.64461 56.5873 -1.15469 -3.31517 -107.318 -77.2003 -55.0276 3.39732 -22.9956 7.36717 
-3.3954699 0.0606794 0.9968648 150.584 78.4987 -161.145 -162.882 -7.82572 -18.7885 -18.3159 -4.86912 4.60989 -4.03282 16.7845 -5.36293 -125.839 47.6369 156.624 -122.514 -47.9098 -144.727 124.138 -22.4741 -154.124 -74.8226 -25.3649 14.6353 9.49235 1.47131 -25.9453 75.0055 -25.2811 30.4787 33.5755 -26.0656 -58.5714 -77.0951 -11.398 -4.27392 0.81054 1.77364 -10.1082 -151.389 4.57949 -45.2968 113.602 34.1752 8.30809 49.9633 -2.75994 -5.47303 -120.914 8.25011 -15.3723 94.3901 -4.74207 -3.65015 56.6043 -1.15605 -3.32029 -107.134 -77.1465 -54.7613 3.40215 -23.0263 7.37015 
